<svg width="48" height="48" viewBox="0 0 48 48" fill="none" xmlns="http://www.w3.org/2000/svg">
<path d="M21.5263 6.94737C23.5675 6.94737 25.5391 7.24535 27.4 7.80012V10.4541C25.5591 9.81891 23.583 9.47368 21.5263 9.47368C11.5852 9.47368 3.52632 17.5326 3.52632 27.4737C3.52632 37.4148 11.5852 45.4737 21.5263 45.4737C31.4674 45.4737 39.5263 37.4148 39.5263 27.4737C39.5263 25.0836 39.0603 22.8024 38.2144 20.7158H40.9138C41.6514 22.832 42.0526 25.106 42.0526 27.4737C42.0526 38.8101 32.8627 48 21.5263 48C10.1899 48 1 38.8101 1 27.4737C1 16.1373 10.1899 6.94737 21.5263 6.94737ZM32.3007 7.89733C32.6066 11.197 32.7596 12.8468 33.8248 13.912C34.89 14.9772 36.5398 15.1302 39.8395 15.4362L47.7368 16.1684L39.8395 16.9007C36.5398 17.2066 34.89 17.3596 33.8248 18.4248C32.7596 19.49 32.6066 21.1398 32.3007 24.4395L31.5684 32.3368L30.8362 24.4395C30.5302 21.1398 30.3772 19.49 29.312 18.4248C28.2468 17.3596 26.597 17.2066 23.2973 16.9007L15.4 16.1684L23.2973 15.4362C26.597 15.1302 28.2468 14.9772 29.312 13.912C30.3772 12.8468 30.5302 11.197 30.8362 7.89733L31.5684 0L32.3007 7.89733Z" fill="url(#paint0_linear_4232_399)"/>
<defs>
<linearGradient id="paint0_linear_4232_399" x1="24.3684" y1="0" x2="24.3684" y2="48" gradientUnits="userSpaceOnUse">
<stop stop-color="#17171B"/>
<stop offset="1" stop-color="#17171B" stop-opacity="0.4"/>
</linearGradient>
</defs>
</svg>
