<svg width="240" height="240" viewBox="0 0 240 240" fill="none" xmlns="http://www.w3.org/2000/svg">
<path d="M107.632 34.7368C117.838 34.7368 127.695 36.2268 137 39.0006V52.2706C127.796 49.0945 117.915 47.3684 107.632 47.3684C57.9259 47.3684 17.6316 87.6628 17.6316 137.368C17.6316 187.074 57.9259 227.368 107.632 227.368C157.337 227.368 197.632 187.074 197.632 137.368C197.632 125.418 195.301 114.012 191.072 103.579H204.569C208.257 114.16 210.263 125.53 210.263 137.368C210.263 194.05 164.313 240 107.632 240C50.9497 240 5 194.05 5 137.368C5 80.6866 50.9497 34.7368 107.632 34.7368ZM161.503 39.4866C163.033 55.9851 163.798 64.2341 169.124 69.56C174.45 74.886 182.699 75.6512 199.198 77.1809L238.684 80.8421L199.198 84.5033C182.699 86.033 174.45 86.7982 169.124 92.1242C163.798 97.4501 163.033 105.699 161.503 122.198L157.842 161.684L154.181 122.198C152.651 105.699 151.886 97.4501 146.56 92.1242C141.234 86.7982 132.985 86.033 116.487 84.5033L77 80.8421L116.487 77.1809C132.985 75.6512 141.234 74.886 146.56 69.56C151.886 64.2341 152.651 55.9851 154.181 39.4866L157.842 0L161.503 39.4866Z" fill="url(#paint0_linear_3763_6708)"/>
<defs>
<linearGradient id="paint0_linear_3763_6708" x1="121.842" y1="0" x2="121.842" y2="240" gradientUnits="userSpaceOnUse">
<stop stop-color="white"/>
<stop offset="1" stop-color="white" stop-opacity="0.4"/>
</linearGradient>
</defs>
</svg>
