<svg width="156" height="48" viewBox="0 0 156 48" fill="none" xmlns="http://www.w3.org/2000/svg">
<path d="M21.5263 6.94737C23.5675 6.94737 25.5391 7.24535 27.4 7.80012V10.4541C25.5591 9.81891 23.583 9.47368 21.5263 9.47368C11.5852 9.47368 3.52632 17.5326 3.52632 27.4737C3.52632 37.4148 11.5852 45.4737 21.5263 45.4737C31.4674 45.4737 39.5263 37.4148 39.5263 27.4737C39.5263 25.0836 39.0603 22.8024 38.2144 20.7158H40.9138C41.6514 22.832 42.0526 25.106 42.0526 27.4737C42.0526 38.8101 32.8627 48 21.5263 48C10.1899 48 1 38.8101 1 27.4737C1 16.1373 10.1899 6.94737 21.5263 6.94737ZM32.3007 7.89733C32.6066 11.197 32.7596 12.8468 33.8248 13.912C34.89 14.9772 36.5398 15.1302 39.8395 15.4362L47.7368 16.1684L39.8395 16.9007C36.5398 17.2066 34.89 17.3596 33.8248 18.4248C32.7596 19.49 32.6066 21.1398 32.3007 24.4395L31.5684 32.3368L30.8362 24.4395C30.5302 21.1398 30.3772 19.49 29.312 18.4248C28.2468 17.3596 26.597 17.2066 23.2973 16.9007L15.4 16.1684L23.2973 15.4362C26.597 15.1302 28.2468 14.9772 29.312 13.912C30.3772 12.8468 30.5302 11.197 30.8362 7.89733L31.5684 0L32.3007 7.89733Z" fill="white"/>
<path d="M146.073 38.949C140.165 38.949 135.887 34.6706 135.887 28.7623C135.887 23.0577 140.165 18.7793 145.87 18.7793C151.167 18.7793 155.038 22.4465 155.038 27.9473C155.038 28.3548 155.038 28.966 154.834 29.7809H138.535C138.943 33.8556 141.999 36.5042 146.277 36.5042C148.722 36.5042 150.759 35.6892 152.185 34.0594L154.019 35.6892C152.185 37.7266 149.129 38.949 146.073 38.949ZM145.87 21.0204C141.795 21.0204 138.943 23.6689 138.535 27.5399H152.389C152.185 23.6689 149.741 21.0204 145.87 21.0204Z" fill="white"/>
<path d="M124.833 38.949C119.332 38.949 115.258 34.6706 115.258 28.7623C115.258 23.0577 119.332 18.7793 124.833 18.7793C128.093 18.7793 130.945 20.2054 132.168 22.854V19.1868H134.816V38.5415H132.168V34.8743C130.742 37.5229 128.093 38.949 124.833 38.949ZM125.445 36.5042C129.519 36.5042 132.371 33.4482 132.371 28.7623C132.371 24.2801 129.519 21.2241 125.445 21.2241C121.166 21.2241 117.906 24.4839 117.906 28.7623C117.906 33.2444 120.962 36.5042 125.445 36.5042Z" fill="white"/>
<path d="M102.088 9H104.736V27.9473L114.516 18.983H117.775L107.589 28.3548L118.183 38.3377H114.719L104.736 28.7622V38.3377H102.088V9Z" fill="white"/>
<path d="M92.2353 39C87.3457 39 84.0859 35.5365 84.0859 30.4432V19.2378H86.7345V30.4432C86.7345 34.1104 88.7718 36.5552 92.2353 36.5552C95.4951 36.5552 97.7361 34.1104 97.7361 30.4432V19.2378H100.385V30.4432C100.385 35.5365 96.9212 39 92.2353 39Z" fill="white"/>
<path d="M63 9.15308H65.6485V22.5995C67.0747 20.1547 69.927 18.7286 72.983 18.7286C78.4838 18.7286 82.7622 23.007 82.7622 28.7116C82.7622 34.6199 78.4838 38.8983 72.983 38.8983C69.927 38.8983 67.0747 37.4721 65.6485 34.8236V38.4908H63V9.15308ZM72.5755 36.4535C76.8539 36.4535 79.7062 33.1937 79.7062 28.7116C79.7062 24.4331 76.8539 21.1734 72.5755 21.1734C68.2971 21.1734 65.4448 24.2294 65.4448 28.7116C65.4448 33.1937 68.5008 36.4535 72.5755 36.4535Z" fill="white"/>
</svg>
