<svg width="353" height="60" viewBox="0 0 353 60" fill="none" xmlns="http://www.w3.org/2000/svg">
<path d="M5.46855 17.4697C4.84393 19.0243 4.5 20.722 4.5 22.5C4.5 29.9558 10.5442 36 18 36C20.8517 36 23.4968 35.1158 25.6762 33.6067C30.7975 30.0603 36.2207 24.9012 42.45 24.9012C48.1201 24.9012 53.4963 24.5486 58.3146 23.9178C58.1131 25.4881 57.8367 26.4492 57.143 27.143C56.1548 28.1312 54.6242 28.2731 51.5629 28.557L43.7815 29.2785L36 30L51.5629 31.443C54.6242 31.7269 56.1548 31.8688 57.143 32.857C57.9067 33.6207 58.1648 34.7084 58.3737 36.5761C47.4005 38.408 40.05 41.7642 40.05 45.6012C40.05 51.4002 56.8393 56.1012 77.55 56.1012C82.8421 56.1012 87.8781 55.7939 92.4434 55.2401C83.0894 58.2522 71.9529 60 60 60C26.8629 60 0 46.5685 0 30C0 25.527 1.95798 21.2829 5.46855 17.4697ZM61.6849 36.0844C61.5995 36.7504 61.5275 37.5259 61.443 38.4371L60 54L58.557 38.4371C58.4925 37.7416 58.4352 37.1252 58.3737 36.5761C59.4441 36.3974 60.549 36.2331 61.6849 36.0844ZM60 0C93.1371 0 120 13.4315 120 30C120 34.4729 118.042 38.717 114.531 42.5301C115.156 40.9755 115.5 39.278 115.5 37.5C115.5 30.0442 109.456 24 102 24C99.1474 24 96.5014 24.8848 94.3216 26.3949C89.2014 29.9419 83.7788 35.1012 77.55 35.1012C71.8796 35.1012 66.5032 35.4535 61.6849 36.0844C61.8864 34.5127 62.1629 33.5511 62.857 32.857C63.8452 31.8688 65.3758 31.7269 68.4371 31.443L84 30L68.4371 28.557C65.3758 28.2731 63.8452 28.1312 62.857 27.143C62.0936 26.3796 61.8353 25.2925 61.6264 23.4261C72.5996 21.5942 79.95 18.2382 79.95 14.4012C79.95 8.60218 63.1607 3.90117 42.45 3.90117C37.1535 3.90117 32.1134 4.20873 27.5451 4.76338C36.9014 1.74905 48.0422 0 60 0ZM61.443 21.5629C61.5076 22.2593 61.5649 22.8765 61.6264 23.4261C60.5558 23.6048 59.4507 23.7691 58.3146 23.9178C58.4001 23.2513 58.4724 22.4751 58.557 21.5629L60 6L61.443 21.5629Z" fill="url(#paint0_linear_1756_14351)"/>
<path d="M312.645 19.8157V47.01H305.863V33.4128H285.623V47.01H278.895V19.8157C278.895 15.5902 281.64 12.99 285.623 12.99H305.863C309.792 12.99 312.645 15.9694 312.645 19.8157ZM285.623 26.6413H305.863V22.5157C305.863 21.0245 304.654 19.8157 303.163 19.8157H288.323C286.832 19.8157 285.623 21.0245 285.623 22.5157V26.6413Z" fill="#234B60"/>
<path d="M235.965 12.99V40.2385C235.965 44.2472 233.216 47.01 229.226 47.01H208.901C204.965 47.01 202.215 44.1389 202.215 40.2385V12.99H208.901V40.2385H229.226V12.99H235.965Z" fill="#234B60"/>
<path d="M190.168 12.99C194.797 12.99 196.95 15.3192 196.95 19.8152V25.5583C196.95 25.5882 196.947 25.6178 196.947 25.6472C196.854 26.6486 196.807 27.1523 196.653 27.574C196.301 28.5375 195.542 29.2967 194.578 29.6492C194.153 29.8045 193.646 29.8519 192.63 29.946C193.645 30.0402 194.153 30.0876 194.578 30.2429C194.757 30.3082 194.929 30.3864 195.092 30.4783C196.376 31.2642 196.95 32.7312 196.95 34.9294V39.8591C196.896 44.6262 195.12 47.0095 190.168 47.0095H163.2V12.99H190.168ZM169.929 40.238H187.468C188.959 40.238 190.168 39.0298 190.168 37.5388V35.6794C190.168 34.1883 188.959 32.9792 187.468 32.9792H169.929V40.238ZM169.929 26.6951H187.468C188.959 26.6951 190.168 25.4869 190.168 23.9958V22.5154C190.168 21.0243 188.959 19.8152 187.468 19.8152H169.929V26.6951Z" fill="#234B60"/>
<path d="M248.393 26.8337C248.35 27.1347 248.3 27.3645 248.224 27.574C247.871 28.5374 247.112 29.2967 246.148 29.6492C245.724 29.8045 245.216 29.8519 244.2 29.946C245.216 30.0402 245.724 30.0876 246.148 30.2429C247.112 30.5954 247.871 31.3546 248.224 32.3181C248.3 32.5278 248.35 32.7579 248.393 33.0593L248.429 47.0095H241.722V12.99H248.429L248.393 26.8337ZM255.458 29.5125L275.472 47.0095H265.17L249.586 31.0916C249.947 30.7182 250.392 30.4257 250.892 30.2429C251.316 30.0876 251.824 30.0402 252.84 29.946C251.824 29.8519 251.316 29.8045 250.892 29.6492C250.353 29.452 249.878 29.1279 249.502 28.7117L264.74 12.99H274.936L255.458 29.5125Z" fill="#234B60"/>
<path d="M352.2 19.8152H325.541V23.9412C325.541 25.4322 326.749 26.6412 328.24 26.6414H352.2V33.4128H328.24C326.749 33.413 325.541 34.622 325.541 36.113V40.238H352.2V47.0095H318.45V34.2664C318.544 33.2507 318.592 32.7428 318.747 32.3181C319.099 31.3546 319.859 30.5953 320.822 30.2429C321.247 30.0877 321.755 30.0402 322.771 29.946C321.755 29.8519 321.247 29.8045 320.822 29.6492C319.859 29.2967 319.099 28.5375 318.747 27.574C318.592 27.1493 318.544 26.6412 318.45 25.6257V12.99H352.2V19.8152Z" fill="#234B60"/>
<defs>
<linearGradient id="paint0_linear_1756_14351" x1="60" y1="0" x2="60" y2="60" gradientUnits="userSpaceOnUse">
<stop stop-color="#15252C"/>
<stop offset="0.5" stop-color="#3B6574"/>
<stop offset="1" stop-color="#88A9AC"/>
</linearGradient>
</defs>
</svg>
