<svg width="24" height="24" viewBox="0 0 24 24" fill="none" xmlns="http://www.w3.org/2000/svg">
<path d="M5 20C4.45 20 3.97933 19.8043 3.588 19.413C3.19667 19.0217 3.00067 18.5507 3 18V6C3 5.45 3.196 4.97933 3.588 4.588C3.98 4.19667 4.45067 4.00067 5 4H19C19.55 4 20.021 4.196 20.413 4.588C20.805 4.98 21.0007 5.45067 21 6V18C21 18.55 20.8043 19.021 20.413 19.413C20.0217 19.805 19.5507 20.0007 19 20H5ZM5 18H19V6H5V18ZM7 15H10C10.2833 15 10.521 14.904 10.713 14.712C10.905 14.52 11.0007 14.2827 11 14V13H9.5V13.5H7.5V10.5H9.5V11H11V10C11 9.71667 10.904 9.47933 10.712 9.288C10.52 9.09667 10.2827 9.00067 10 9H7C6.71667 9 6.47933 9.096 6.288 9.288C6.09667 9.48 6.00067 9.71733 6 10V14C6 14.2833 6.096 14.521 6.288 14.713C6.48 14.905 6.71733 15.0007 7 15ZM14 15H17C17.2833 15 17.521 14.904 17.713 14.712C17.905 14.52 18.0007 14.2827 18 14V13H16.5V13.5H14.5V10.5H16.5V11H18V10C18 9.71667 17.904 9.47933 17.712 9.288C17.52 9.09667 17.2827 9.00067 17 9H14C13.7167 9 13.4793 9.096 13.288 9.288C13.0967 9.48 13.0007 9.71733 13 10V14C13 14.2833 13.096 14.521 13.288 14.713C13.48 14.905 13.7173 15.0007 14 15Z" fill="#111111"/>
</svg>
