<svg width="24" height="24" viewBox="0 0 24 24" fill="none" xmlns="http://www.w3.org/2000/svg">
<path d="M8 12.0007C10.28 12.0007 12 10.2807 12 8.00072C12 5.72072 10.28 4.00072 8 4.00072C5.72 4.00072 4 5.72072 4 8.00072C4 10.2807 5.72 12.0007 8 12.0007ZM8 6.00072C9.178 6.00072 10 6.82272 10 8.00072C10 9.17872 9.178 10.0007 8 10.0007C6.822 10.0007 6 9.17872 6 8.00072C6 6.82272 6.822 6.00072 8 6.00072ZM9 13.0007H7C4.243 13.0007 2 15.2437 2 18.0007V19.0007H4V18.0007C4 16.3467 5.346 15.0007 7 15.0007H9C10.654 15.0007 12 16.3467 12 18.0007V19.0007H14V18.0007C14 15.2437 11.757 13.0007 9 13.0007ZM18.364 2.63672L16.95 4.05072C18.271 5.37372 19 7.13172 19 9.00072C19 10.8697 18.271 12.6277 16.95 13.9507L18.364 15.3647C20.064 13.6637 21 11.4037 21 9.00072C21 6.59772 20.064 4.33772 18.364 2.63672Z" fill="#111111"/>
<path d="M15.5351 5.46484L14.1211 6.88084C14.6881 7.44584 15.0001 8.19884 15.0001 9.00084C15.0001 9.80284 14.6881 10.5558 14.1211 11.1208L15.5351 12.5368C16.4791 11.5928 17.0001 10.3378 17.0001 9.00084C17.0001 7.66384 16.4791 6.40884 15.5351 5.46484Z" fill="#111111"/>
</svg>
