<svg width="24" height="12" viewBox="0 0 24 12" fill="none" xmlns="http://www.w3.org/2000/svg">
<path d="M0 6C0 3.54686 3.88187 4.53721 3.88187 4.53721C3.88187 4.53721 6.75269 4.98023 8.49 4.98023C9.69231 4.98023 10.8285 4.90096 11.8358 4.76016C11.7921 5.18156 11.7443 5.41835 11.5813 5.58135C11.3837 5.77899 11.0776 5.80735 10.4653 5.86412L9 6L10.4653 6.13588C11.0776 6.19265 11.3837 6.22101 11.5813 6.41865C11.7505 6.58779 11.7956 6.83641 11.8407 7.28833C9.5545 7.64811 8.01 8.03372 8.01 8.8203C8.01 9.9801 11.3679 11.2202 15.51 11.2202C16.5684 11.2202 23.0869 11.1588 24 11.048C22.1292 11.6504 14.3906 12 12 12C5.37258 12 0 8.45314 0 6ZM12.1642 7.24028C12.1549 7.32975 12.1458 7.42753 12.1359 7.53469L12 9L11.8641 7.53469C11.8559 7.4464 11.8483 7.36448 11.8407 7.28833C11.9469 7.27161 12.0548 7.25558 12.1642 7.24028ZM12 0C18.6274 0 24 3.54672 24 6C24 8.45328 20.1176 7.46312 20.1176 7.46312C20.1176 7.46312 17.2471 7.02023 15.51 7.02023C14.3077 7.02023 13.1714 7.09947 12.1642 7.24028C12.2078 6.8186 12.2556 6.5817 12.4187 6.41865C12.6163 6.22101 12.9224 6.19265 13.5347 6.13588L15 6L13.5347 5.86412C12.9224 5.80735 12.6163 5.77899 12.4187 5.58135C12.2496 5.41226 12.2044 5.16376 12.1593 4.71211C14.4455 4.35233 15.99 3.96688 15.99 3.1803C15.99 2.0205 12.6321 0.780234 8.49 0.780234C7.4307 0.780234 0.913673 0.841746 0 0.952676C1.87126 0.349809 9.60843 0 12 0ZM12.1359 4.46531C12.1441 4.55377 12.1517 4.63584 12.1593 4.71211C12.0531 4.72884 11.9452 4.74486 11.8358 4.76016C11.845 4.67057 11.8542 4.57265 11.8641 4.46531L12 3L12.1359 4.46531Z" fill="#F2F9F7"/>
</svg>
