<svg width="858" height="429" viewBox="0 0 858 429" fill="none" xmlns="http://www.w3.org/2000/svg">
<path d="M39.1002 124.909C34.6341 136.024 32.175 148.162 32.175 160.875C32.175 214.184 75.3907 257.4 128.7 257.4C149.089 257.4 168.002 251.078 183.585 240.288C220.202 214.931 258.978 178.043 303.517 178.043C344.059 178.043 382.499 175.523 416.949 171.012C415.508 182.24 413.533 189.112 408.572 194.072C401.507 201.138 390.563 202.153 368.675 204.182L313.038 209.341L257.4 214.5L368.675 224.818C390.563 226.847 401.507 227.862 408.572 234.928C414.033 240.388 415.878 248.165 417.372 261.519C338.913 274.617 286.357 298.614 286.357 326.048C286.357 367.511 406.401 401.123 554.482 401.123C592.321 401.123 628.328 398.926 660.97 394.967C594.089 416.503 514.463 429 429 429C192.07 429 0 332.965 0 214.5C0 182.518 13.9996 152.172 39.1002 124.909ZM441.047 258.003C440.436 262.765 439.922 268.31 439.318 274.825L429 386.1L418.682 274.825C418.221 269.852 417.811 265.445 417.372 261.519C425.026 260.242 432.925 259.067 441.047 258.003ZM429 0C665.93 0 858 96.0349 858 214.5C858 246.481 844 276.827 818.9 304.09C823.366 292.975 825.825 280.837 825.825 268.125C825.825 214.816 782.609 171.6 729.3 171.6C708.904 171.6 689.985 177.926 674.399 188.723C637.79 214.085 599.018 250.973 554.482 250.973C513.939 250.973 475.498 253.493 441.047 258.003C442.488 246.766 444.465 239.89 449.428 234.928C456.493 227.862 467.437 226.847 489.325 224.818L600.6 214.5L489.325 204.182C467.437 202.153 456.493 201.138 449.428 194.072C443.969 188.614 442.122 180.841 440.629 167.496C519.087 154.398 571.643 130.403 571.643 102.968C571.643 61.5056 451.599 27.8934 303.517 27.8934C265.647 27.8934 229.611 30.0924 196.947 34.0582C263.845 12.5057 343.502 0 429 0ZM439.318 154.175C439.779 159.154 440.189 163.567 440.629 167.496C432.974 168.774 425.072 169.949 416.949 171.012C417.56 166.247 418.078 160.697 418.682 154.175L429 42.9L439.318 154.175Z" fill="url(#paint0_linear_2154_12861)" fill-opacity="0.1"/>
<defs>
<linearGradient id="paint0_linear_2154_12861" x1="429" y1="0" x2="429" y2="429" gradientUnits="userSpaceOnUse">
<stop stop-color="#15252C"/>
<stop offset="0.5" stop-color="#3B6574"/>
<stop offset="1" stop-color="#88A9AC"/>
</linearGradient>
</defs>
</svg>
