<svg width="4002" height="763" viewBox="0 0 4002 763" fill="none" xmlns="http://www.w3.org/2000/svg">
<path d="M1930.77 254.43L1954.18 239.609C1958.7 236.75 1961.33 232.011 1961.33 226.97V74.7019C1961.33 66.0503 1956.74 58.0005 1949.14 53.1857L1887.94 14.5168C1881.32 10.3038 1873.49 8.04688 1865.44 8.04688H1589.88H1523.57C1513.86 8.04688 1505.96 15.4196 1505.96 24.5226V428.666V738.845C1505.96 747.948 1513.86 755.32 1523.57 755.32H1549.76H1856.26C1869.65 755.32 1882.75 751.559 1893.81 744.562L1946.05 711.461C1955.53 705.442 1961.25 695.436 1961.25 684.678V312.508C1961.25 305.361 1957.49 298.666 1951.17 294.679L1930.7 281.663C1920.38 275.118 1920.38 260.9 1930.7 254.355L1930.77 254.43ZM1877.41 651.576C1877.41 657.068 1874.47 662.184 1869.65 665.193L1855.58 674.07C1852.64 675.951 1849.18 676.929 1845.72 676.929H1607.57C1597.86 676.929 1589.96 669.557 1589.96 660.454V488.399C1589.96 477.039 1595.98 466.432 1606.06 460.037L1824.57 321.687C1830.51 317.925 1838.42 317.925 1844.36 321.687L1869.65 337.711C1874.47 340.795 1877.41 345.911 1877.41 351.328V651.501V651.576ZM1877.41 184.765C1877.41 190.257 1874.47 195.373 1869.65 198.382L1617.43 358.023C1605.69 365.471 1589.88 357.572 1589.88 344.406V102.989C1589.88 93.8859 1597.79 86.5132 1607.5 86.5132H1846.55C1850.08 86.5132 1853.55 87.4912 1856.41 89.372L1869.5 97.6475C1874.32 100.732 1877.26 105.848 1877.26 111.264V184.765H1877.41Z" fill="#005731"/>
<path d="M1505.96 428.666V24.5226C1505.96 15.4196 1513.86 8.04688 1523.57 8.04688H1589.88H1865.44C1873.49 8.04688 1881.32 10.3038 1887.94 14.5168L1949.14 53.1857C1956.74 58.0005 1961.33 66.0503 1961.33 74.7019V226.97C1961.33 232.011 1958.7 236.75 1954.18 239.609L1930.77 254.43L1930.7 254.355C1920.38 260.9 1920.38 275.118 1930.7 281.663L1951.17 294.679C1957.49 298.666 1961.25 305.361 1961.25 312.508V684.678C1961.25 695.436 1955.53 705.442 1946.05 711.461L1893.81 744.562C1882.75 751.559 1869.65 755.32 1856.26 755.32H1549.76H1523.57C1513.86 755.32 1505.96 747.948 1505.96 738.845V428.666ZM1505.96 428.666L1505.58 428.891M1877.41 651.576C1877.41 657.068 1874.47 662.184 1869.65 665.193L1855.58 674.07C1852.64 675.951 1849.18 676.929 1845.72 676.929H1607.57C1597.86 676.929 1589.96 669.557 1589.96 660.454V488.399C1589.96 477.039 1595.98 466.432 1606.06 460.037L1824.57 321.687C1830.51 317.925 1838.42 317.925 1844.36 321.687L1869.65 337.711C1874.47 340.795 1877.41 345.911 1877.41 351.328V651.501V651.576ZM1877.41 184.765C1877.41 190.257 1874.47 195.373 1869.65 198.382L1617.43 358.023C1605.69 365.471 1589.88 357.572 1589.88 344.406V102.989C1589.88 93.8859 1597.79 86.5132 1607.5 86.5132H1846.55C1850.08 86.5132 1853.55 87.4912 1856.41 89.372L1869.5 97.6475C1874.32 100.732 1877.26 105.848 1877.26 111.264V184.765H1877.41Z" stroke="#006737" stroke-width="1.67047" stroke-miterlimit="10"/>
<path d="M2470 576.346V208.841C2470 199.738 2462.09 192.365 2452.38 192.365H2403.76C2394.05 192.365 2386.15 199.738 2386.15 208.841V528.875C2386.15 534.367 2383.21 539.483 2378.4 542.492L2172.16 673.094C2169.23 674.975 2165.76 675.953 2162.3 675.953H2116.39C2106.68 675.953 2098.77 668.58 2098.77 659.477V208.841C2098.77 199.738 2090.87 192.365 2081.16 192.365H2032.54C2022.83 192.365 2014.93 199.738 2014.93 208.841V738.32C2014.93 747.423 2022.83 754.795 2032.54 754.795H2098.85V754.419H2178.56C2188.42 754.419 2198.05 751.636 2206.26 746.445L2358.83 649.772C2370.57 642.324 2386.37 650.224 2386.37 663.389V738.244C2386.37 747.347 2394.28 754.72 2403.99 754.72H2452.61C2462.32 754.72 2470.22 747.347 2470.22 738.244V579.13L2469.39 580.484L2470.22 576.271L2470 576.346Z" fill="#005731" stroke="#006737" stroke-width="1.67047" stroke-miterlimit="10"/>
<path d="M3977.99 675.953H3641.76C3632.05 675.953 3624.15 668.58 3624.15 659.477V628.331C3624.15 622.839 3627.09 617.724 3631.9 614.714L3977.46 395.941C3988.75 388.794 3995.52 376.833 3995.52 364.043V231.561V208.841C3995.52 199.738 3987.62 192.365 3977.91 192.365H3699.49C3690.69 192.365 3682.11 194.848 3674.81 199.437L3549.48 278.806C3543.69 282.492 3540.23 288.586 3540.23 295.056V736.589C3540.23 746.445 3548.73 754.419 3559.27 754.419H3977.99C3987.7 754.419 3995.6 747.046 3995.6 737.943V692.504C3995.6 683.401 3987.7 676.028 3977.99 676.028V675.953ZM3624.15 335.004C3624.15 329.512 3627.09 324.396 3631.9 321.387L3707.32 273.615C3710.26 271.734 3713.72 270.756 3717.18 270.756H3893.99C3903.7 270.756 3911.6 278.129 3911.6 287.232V334.101C3911.6 339.593 3908.66 344.709 3903.85 347.718L3651.7 507.359C3639.96 514.807 3624.15 506.908 3624.15 493.742V334.929V335.004Z" fill="#005731" stroke="#006737" stroke-width="1.67047" stroke-miterlimit="10"/>
<path d="M2972.56 662.411L2710.1 489.228C2698.13 481.63 2698.13 465.154 2710.1 457.556L2970.52 292.724C2976.17 289.188 2979.48 283.245 2979.48 276.85V221.028C2979.48 210.797 2967.29 204.703 2958.18 210.345L2635.66 410.009C2623.91 417.457 2608.11 409.558 2608.11 396.393V26.6303C2608.11 16.0979 2598.92 7.52148 2587.63 7.52148H2544.66C2533.37 7.52148 2524.18 16.0979 2524.18 26.6303V735.686C2524.18 746.219 2533.37 754.795 2544.66 754.795H2587.63C2598.92 754.795 2608.11 746.219 2608.11 735.686V533.314C2608.11 526.693 2616.16 522.781 2621.96 526.618L2963 752.463C2969.92 756.977 2979.4 752.463 2979.4 744.488V680.692C2979.48 675.2 2977.45 665.495 2972.63 662.411H2972.56Z" fill="#005731" stroke="#006737" stroke-width="1.8932" stroke-miterlimit="10"/>
<path d="M3469.93 192.365H3343.4C3334.9 192.365 3326.62 194.773 3319.54 199.211L3039.85 376.306C3035.03 379.391 3032.09 384.506 3032.09 389.923V467.637C3032.09 471.098 3036.31 473.204 3039.39 471.248L3351.68 273.615C3354.62 271.734 3358.08 270.756 3361.62 270.756H3386C3395.71 270.756 3403.62 278.129 3403.62 287.232V331.919C3403.62 337.411 3400.68 342.527 3395.86 345.536L3040 570.854C3035.1 573.939 3032.24 579.055 3032.24 584.547V737.868C3032.24 746.971 3040.15 754.344 3049.86 754.344H3353.11C3360.64 754.344 3368.09 752.237 3374.34 748.25L3479.94 681.294C3484.68 678.285 3487.54 673.244 3487.54 667.903V270.756H3487.62V208.841C3487.62 199.738 3479.71 192.365 3470 192.365H3469.93ZM3403.54 626.225C3403.54 631.717 3400.61 636.832 3395.79 639.842L3343.33 673.094C3340.39 674.975 3336.93 675.953 3333.47 675.953H3133.71C3124 675.953 3116.09 668.58 3116.09 659.477V626.15C3116.09 620.658 3119.03 615.542 3123.85 612.533L3376.07 452.892C3387.81 445.444 3403.62 453.343 3403.62 466.508V626.3L3403.54 626.225Z" fill="#005731" stroke="#006737" stroke-width="1.67047" stroke-miterlimit="10"/>
<path d="M1363.25 352.898C1363.25 217.671 1253.55 108.021 1118.26 108.021C1072.15 108.021 1029.07 120.756 992.249 142.881L992.033 143.042C984.475 147.629 977.187 152.594 970.168 157.882L875.366 222.258V108.615H385.428V406.536C385.428 407.831 385.32 409.072 385.32 410.313C385.32 545.54 495.023 655.19 630.316 655.19C679.175 655.19 724.633 640.836 762.856 616.23L765.555 614.449C766.851 613.585 768.093 612.722 769.334 611.859L873.207 541.331V654.596H1363.09V356.675C1363.09 355.38 1363.2 354.139 1363.2 352.898H1363.25Z" fill="#005731"/>
</svg>
