<svg width="21" height="18" viewBox="0 0 21 18" fill="none" xmlns="http://www.w3.org/2000/svg">
<path fill-rule="evenodd" clip-rule="evenodd" d="M17.72 3.86574C17.8606 3.72528 18.0512 3.6464 18.25 3.6464C18.4488 3.6464 18.6394 3.72528 18.78 3.86574L18.782 3.86774L18.785 3.86974L18.792 3.87674L18.812 3.89674L18.874 3.96574C18.924 4.02274 18.994 4.10373 19.075 4.20674C19.999 5.40771 20.5 6.88046 20.5 8.39574C20.5 9.91101 19.999 11.3838 19.075 12.5847C18.9912 12.6916 18.9032 12.795 18.811 12.8947L18.791 12.9147L18.785 12.9217L18.782 12.9237L18.781 12.9247L18.271 12.4167L18.781 12.9267C18.6403 13.0674 18.4495 13.1465 18.2505 13.1465C18.0515 13.1465 17.8607 13.0674 17.72 12.9267C17.5793 12.786 17.5003 12.5952 17.5003 12.3962C17.5003 12.1973 17.5793 12.0064 17.72 11.8657L17.719 11.8667L17.717 11.8677L17.722 11.8627L17.755 11.8267C17.787 11.7921 17.8333 11.7364 17.894 11.6597C18.5266 10.8339 18.9058 9.84202 18.9853 8.80473C19.0648 7.76745 18.8413 6.7294 18.342 5.81673C18.2116 5.57654 18.0618 5.34744 17.894 5.13174C17.8397 5.06156 17.7823 4.99382 17.722 4.92874L17.717 4.92374C17.5776 4.7828 17.4996 4.59238 17.5002 4.39412C17.5007 4.19585 17.5798 4.00588 17.72 3.86574ZM11.787 0.291735C12.95 -0.475265 14.5 0.359735 14.5 1.75274V16.0387C14.5 17.4327 12.95 18.2667 11.787 17.4997L5.787 13.5447C5.74641 13.5177 5.69879 13.5031 5.65 13.5027H2.75C2.02065 13.5027 1.32118 13.213 0.805456 12.6973C0.289731 12.1816 0 11.4821 0 10.7527V7.03873C0 6.30939 0.289731 5.60992 0.805456 5.09419C1.32118 4.57847 2.02065 4.28874 2.75 4.28874H5.65C5.69903 4.2889 5.74701 4.27464 5.788 4.24774L11.787 0.291735Z" fill="#2C2C2C"/>
</svg>
