<svg width="68" height="34" viewBox="0 0 68 34" fill="none" xmlns="http://www.w3.org/2000/svg">
<path d="M3.09885 9.89951C2.74489 10.7805 2.55 11.7425 2.55 12.75C2.55 16.975 5.97502 20.4 10.2 20.4C11.8159 20.4 13.3148 19.899 14.5498 19.0438C17.4519 17.0342 20.5251 14.1107 24.055 14.1107C27.2681 14.1107 30.3146 13.9109 33.0449 13.5534C32.9307 14.4433 32.7741 14.9879 32.381 15.381C31.821 15.941 30.9537 16.0214 29.219 16.1823L24.8095 16.5911L20.4 17L29.219 17.8177C30.9537 17.9786 31.821 18.059 32.381 18.619C32.8138 19.0518 32.96 19.6681 33.0784 20.7265C26.8603 21.7645 22.695 23.6664 22.695 25.8407C22.695 29.1268 32.209 31.7907 43.945 31.7907C46.9438 31.7907 49.7976 31.6165 52.3846 31.3027C47.084 33.0096 40.7733 34 34 34C15.2223 34 0 26.3888 0 17C0 14.4653 1.10952 12.0603 3.09885 9.89951ZM34.9548 20.4478C34.9064 20.8252 34.8656 21.2647 34.8177 21.781L34 30.6L33.1823 21.781C33.1458 21.3869 33.1133 21.0376 33.0784 20.7265C33.685 20.6252 34.3111 20.5321 34.9548 20.4478ZM34 0C52.7777 0 68 7.61116 68 17C68 19.5347 66.8905 21.9396 64.9012 24.1004C65.2551 23.2195 65.45 22.2575 65.45 21.25C65.45 17.025 62.025 13.6 57.8 13.6C56.1835 13.6 54.6841 14.1014 53.4489 14.9571C50.5474 16.9671 47.4747 19.8907 43.945 19.8907C40.7318 19.8907 37.6852 20.0903 34.9548 20.4478C35.0689 19.5572 35.2257 19.0123 35.619 18.619C36.179 18.059 37.0463 17.9786 38.781 17.8177L47.6 17L38.781 16.1823C37.0463 16.0214 36.179 15.941 35.619 15.381C35.1864 14.9484 35.04 14.3324 34.9216 13.2748C41.1398 12.2367 45.305 10.335 45.305 8.16066C45.305 4.87457 35.791 2.21066 24.055 2.21066C21.0536 2.21066 18.1976 2.38495 15.6089 2.69925C20.9108 0.991127 27.2239 0 34 0ZM34.8177 12.219C34.8543 12.6136 34.8868 12.9633 34.9216 13.2748C34.3149 13.3761 33.6887 13.4691 33.0449 13.5534C33.0934 13.1757 33.1344 12.7359 33.1823 12.219L34 3.4L34.8177 12.219Z" fill="url(#paint0_linear_2706_9386)"/>
<defs>
<linearGradient id="paint0_linear_2706_9386" x1="34" y1="0" x2="34" y2="34" gradientUnits="userSpaceOnUse">
<stop stop-color="#F8FCFB"/>
<stop offset="0.5" stop-color="#E4EEED"/>
<stop offset="1" stop-color="#BBC9C9"/>
</linearGradient>
</defs>
</svg>
