<?xml version="1.0" encoding="UTF-8"?>
<svg id="_레이어_1" data-name="레이어_1" xmlns="http://www.w3.org/2000/svg" version="1.1" viewBox="0 0 200 200">
  <!-- Generator: Adobe Illustrator 30.0.0, SVG Export Plug-In . SVG Version: 2.1.1 Build 123)  -->
  <defs>
    <style>
      .st0 {
        fill: #005731;
      }
    </style>
  </defs>
  <path class="st0" d="M161.5,96.39c0-17.02-13.8-30.82-30.82-30.82-5.8,0-11.22,1.6-15.85,4.39h0s-.03.02-.03.02c-.95.57-1.87,1.2-2.75,1.87l-11.92,8.1v-14.31h-61.62v37.49h0c0,.16-.01.32-.01.48,0,17.02,13.8,30.82,30.82,30.82,6.14,0,11.86-1.81,16.67-4.9h0s.34-.22.34-.22c.16-.11.32-.21.48-.32l13.06-8.88v14.26h61.62v-37.49h0c0-.16.01-.32.01-.48Z"/>
</svg>