<?xml version="1.0" encoding="UTF-8"?>
<svg id="_레이어_1" data-name="레이어_1" xmlns="http://www.w3.org/2000/svg" version="1.1" viewBox="70 0 165 80">
  <!-- Generator: Adobe Illustrator 30.0.0, SVG Export Plug-In . SVG Version: 2.1.1 Build 123)  -->
  <defs>
    <style>
      .st0 {
        fill: #005731;
        stroke: #005731;
        stroke-miterlimit: 10;
        stroke-width: .5px;
      }
    </style>
  </defs>
  <path class="st0" d="M98.19,31.99l1.48-.94c.28-.18.45-.48.45-.8v-9.63c0-.54-.29-1.05-.77-1.36l-3.86-2.45c-.42-.27-1.01-.47-1.52-.47l-17.31.07h0s-4.19,0-4.19,0c-.62,0-1.11.47-1.11,1.04v25.55h-.02s.02,0,.02,0v19.61c0,.58.5,1.04,1.11,1.04h1.65s19.37,0,19.37,0c.85,0,1.67-.24,2.37-.68l3.3-2.09c.6-.38.96-1.01.96-1.69v-23.53c0-.45-.24-.87-.64-1.13l-1.29-.82c-.65-.41-.65-1.31,0-1.72ZM94.82,57.09c0,.35-.18.67-.49.86l-.89.56c-.18.12-.4.18-.63.18h-15.05c-.62,0-1.11-.47-1.11-1.04v-10.88c0-.72.38-1.39,1.02-1.79l13.81-8.74c.38-.24.87-.24,1.25,0l1.6,1.01c.31.19.49.52.49.86v18.98ZM94.82,27.58c0,.35-.18.67-.49.86l-15.94,10.09c-.74.47-1.74-.03-1.74-.86v-15.27c0-.58.5-1.04,1.11-1.04h15.11c.22,0,.44.06.63.18l.83.53c.31.19.49.52.49.86v4.65Z"/>
  <path class="st0" d="M132.27,52.34v-23.23c0-.58-.5-1.04-1.11-1.04h-3.07c-.62,0-1.11.47-1.11,1.04v20.23c0,.35-.18.67-.49.86l-13.03,8.25c-.18.12-.4.18-.63.18h-2.9c-.62,0-1.11-.47-1.11-1.04v-28.49c0-.58-.5-1.04-1.11-1.04h-3.07c-.62,0-1.11.47-1.11,1.04v33.47c0,.58.5,1.04,1.11,1.04h4.19s0-.02,0-.02h5.04c.62,0,1.23-.17,1.75-.5l9.64-6.11c.74-.47,1.74.03,1.74.86v4.73c0,.58.5,1.04,1.11,1.04h3.07c.62,0,1.11-.47,1.11-1.04v-10.06s-.05.08-.05.08c0,0,.05-.27.05-.27Z"/>
  <path class="st0" d="M227.55,58.64h-21.24c-.62,0-1.11-.47-1.11-1.04v-1.97c0-.35.18-.67.49-.86l21.83-13.83c.72-.45,1.14-1.21,1.14-2.02v-8.37s0-1.44,0-1.44c0-.58-.5-1.04-1.11-1.04h-17.59c-.56,0-1.1.16-1.56.45l-7.92,5.02c-.36.23-.58.62-.58,1.03v27.91c0,.62.54,1.13,1.2,1.13h26.46c.62,0,1.11-.47,1.11-1.04v-2.87c0-.58-.5-1.04-1.11-1.04ZM205.2,37.08c0-.35.18-.67.49-.86l4.76-3.02c.18-.12.4-.18.63-.18h11.17c.62,0,1.11.47,1.11,1.04v2.96c0,.35-.18.67-.49.86l-15.93,10.09c-.74.47-1.74-.03-1.74-.86v-10.04Z"/>
  <path class="st0" d="M164.02,57.78l-16.59-10.95c-.76-.48-.76-1.52,0-2l16.45-10.42c.36-.23.57-.6.57-1v-3.53c0-.65-.77-1.03-1.35-.68l-20.38,12.62c-.74.47-1.74-.03-1.74-.86v-23.37c0-.67-.58-1.21-1.29-1.21h-2.72c-.71,0-1.29.54-1.29,1.21v44.82c0,.67.58,1.21,1.29,1.21h2.72c.71,0,1.29-.54,1.29-1.21v-12.79c0-.42.51-.67.87-.42l21.55,14.28c.44.29,1.03,0,1.04-.5v-4.03c0-.35-.12-.96-.43-1.15Z"/>
  <path class="st0" d="M195.45,28.06h-7.99c-.54,0-1.06.15-1.51.43l-17.67,11.19c-.31.19-.49.52-.49.86v4.91c0,.22.26.35.46.23l19.73-12.49c.18-.12.4-.18.63-.18h1.54c.62,0,1.11.47,1.11,1.04v2.82c0,.35-.18.67-.49.86l-22.49,14.24c-.31.19-.49.52-.49.87v9.69c0,.58.5,1.04,1.11,1.04h0s19.16,0,19.16,0c.48,0,.94-.13,1.34-.38l6.67-4.23c.3-.19.48-.51.48-.85v-25.11h0v-3.92c0-.58-.5-1.04-1.11-1.04ZM191.25,55.49c0,.35-.18.67-.49.86l-3.31,2.1c-.18.12-.4.18-.63.18h-12.62c-.62,0-1.11-.47-1.11-1.04v-2.11c0-.35.18-.67.49-.86l15.94-10.09c.74-.47,1.74.03,1.74.86v10.1Z"/>
</svg>