<svg width="21" height="21" viewBox="0 0 21 21" fill="none" xmlns="http://www.w3.org/2000/svg">
<path d="M5 4.716V2.406C5.00013 2.03306 5.14838 1.67544 5.41213 1.41178C5.67589 1.14812 6.03356 1 6.4065 1H18.5935C18.9665 1 19.3243 1.14818 19.588 1.41195C19.8518 1.67572 20 2.03347 20 2.4065V14.594C19.9999 14.9669 19.8517 15.3244 19.588 15.588C19.3244 15.8517 18.9669 15.9999 18.594 16H16.258" stroke="#454545" stroke-width="2" stroke-linecap="round" stroke-linejoin="round"/>
<path d="M14.594 5H2.4055C2.03265 5.00027 1.67515 5.14857 1.4116 5.41231C1.14805 5.67605 1 6.03365 1 6.4065V18.5935C1 18.9665 1.14818 19.3243 1.41195 19.588C1.67572 19.8518 2.03347 20 2.4065 20H14.594C14.9669 19.9999 15.3244 19.8517 15.588 19.588C15.8517 19.3244 15.9999 18.9669 16 18.594V6.4055C15.9997 6.03273 15.8515 5.67532 15.5879 5.41178C15.3242 5.14824 14.9668 5.00013 14.594 5Z" stroke="#454545" stroke-width="2" stroke-linejoin="round"/>
</svg>
